<?xml version="1.0" encoding="UTF-8" standalone="no"?>
<svg width="120" height="40" viewBox="0 0 120 40" fill="none" xmlns="http://www.w3.org/2000/svg">
  <defs>
    <linearGradient id="gradient" x1="0%" y1="0%" x2="100%" y2="0%">
      <stop offset="0%" stop-color="#7C4DFF" />
      <stop offset="100%" stop-color="#00E5FF" />
    </linearGradient>
  </defs>
  <path d="M13.904 28H8.608V14.144H3.728V9.616H18.784V14.144H13.904V28ZM31.7428 28L30.8388 25.024H25.1348L24.2308 28H18.5748L24.7428 9.472H31.3108L37.4788 28H31.7428ZM29.7348 20.784C28.7028 17.376 28.1428 15.728 28.0548 15.84C27.9668 15.92 27.4068 17.568 26.3748 20.784H29.7348ZM51.8883 28H44.0083L39.2723 9.472H45.1923L47.9283 21.232L50.7523 9.472H56.6723L51.8883 28ZM61.6444 28H56.3484V9.616H61.6444V28ZM63.822 28V9.616H70.454C75.302 9.616 77.726 11.664 77.726 15.76C77.726 18.016 76.662 19.616 74.534 20.56L79.102 28H73.046L69.758 21.664H69.118V28H63.822ZM69.118 17.568H69.974C71.39 17.568 72.098 16.992 72.098 15.84C72.098 14.752 71.39 14.208 69.974 14.208H69.118V17.568ZM86.1571 28H80.8611V9.616H86.1571V17.424L90.2291 9.616H95.9851L91.2731 18.208L96.3371 28H90.4211L86.1571 19.456V28ZM99.0229 9.616H104.319V28H99.0229V9.616Z" fill="url(#gradient)"/>
</svg> 