<svg id="svg" version="1.1" xmlns="http://www.w3.org/2000/svg" xmlns:xlink="http://www.w3.org/1999/xlink" width="400" height="452.0325203252032" viewBox="0, 0, 400,452.0325203252032"><g id="svgg"><path id="path0" d="M114.277 73.604 C 114.759 73.798,115.147 74.282,115.139 74.679 C 115.131 75.075,115.119 132.730,115.113 202.800 C 115.100 346.663,115.154 332.505,114.613 332.909 C 114.386 333.079,115.089 333.169,116.177 333.109 C 118.027 333.007,118.174 332.919,118.480 331.732 C 119.146 329.145,118.672 74.016,118.000 73.592 C 117.670 73.383,116.500 73.221,115.400 73.231 C 113.836 73.247,113.591 73.328,114.277 73.604 M122.619 73.838 C 121.587 74.870,121.873 139.645,122.914 140.686 C 123.749 141.521,335.720 141.833,336.315 141.000 C 336.472 140.780,336.960 140.403,337.400 140.163 C 339.423 139.058,339.392 139.536,339.512 107.918 C 339.638 75.005,339.633 74.922,337.596 73.900 C 335.544 72.870,123.647 72.810,122.619 73.838 M117.100 265.100 C 117.044 299.145,116.997 271.290,116.997 203.200 C 116.997 135.110,117.044 107.255,117.100 141.300 C 117.156 175.345,117.156 231.055,117.100 265.100 M269.029 148.629 C 268.065 149.592,268.065 406.408,269.029 407.371 C 269.374 407.717,270.139 408.000,270.729 408.000 L 271.800 408.000 271.701 278.540 C 271.628 183.422,271.721 148.937,272.050 148.540 C 272.719 147.734,269.839 147.818,269.029 148.629 M335.901 148.261 C 336.301 148.426,336.402 174.609,336.401 278.134 L 336.399 407.800 337.299 407.676 C 339.811 407.330,339.600 419.223,339.600 278.000 C 339.600 156.751,339.564 150.047,338.900 149.288 C 338.515 148.848,337.570 148.390,336.800 148.271 C 336.030 148.152,335.626 148.147,335.901 148.261 M50.405 374.001 L 50.416 408.001 157.508 407.901 L 264.600 407.800 264.702 374.444 C 264.777 350.132,264.682 340.940,264.353 340.544 C 263.975 340.088,246.646 340.000,157.148 340.000 L 50.393 340.000 50.405 374.001 " stroke="none" fill="#fcfcfc" fill-rule="evenodd"></path><path id="path1" d="M52.032 73.900 C 51.780 74.332,51.620 74.400,51.612 74.076 C 51.605 73.788,51.431 73.657,51.225 73.785 C 51.018 73.912,50.918 74.373,51.002 74.808 C 51.085 75.244,50.984 75.600,50.777 75.600 C 50.205 75.600,50.326 77.196,50.900 77.224 C 51.175 77.238,65.112 77.228,81.871 77.202 L 112.341 77.154 113.368 78.047 L 114.395 78.940 114.399 203.253 L 114.403 327.565 113.305 328.583 L 112.208 329.600 84.504 329.600 C 66.418 329.600,56.800 329.462,56.800 329.203 C 56.800 328.984,56.411 328.864,55.935 328.937 C 55.460 329.010,54.376 328.942,53.527 328.787 C 52.678 328.631,51.884 328.664,51.764 328.859 C 51.435 329.391,50.745 328.819,51.058 328.272 C 51.206 328.013,51.174 327.940,50.986 328.112 C 50.150 328.873,50.451 331.856,51.312 331.340 C 51.656 331.133,51.647 331.236,51.281 331.688 C 50.346 332.841,51.230 332.874,82.721 332.834 C 99.814 332.813,114.113 332.796,114.496 332.797 C 115.316 332.800,115.619 75.506,114.800 75.000 C 114.580 74.864,114.400 74.573,114.400 74.353 C 114.400 74.133,114.608 74.081,114.862 74.238 C 115.129 74.403,115.216 74.349,115.068 74.110 C 114.927 73.883,114.449 73.602,114.006 73.486 C 113.562 73.370,113.281 73.408,113.382 73.571 C 113.482 73.733,113.311 73.867,113.000 73.867 C 112.689 73.867,112.528 73.717,112.641 73.533 C 112.967 73.006,54.913 73.111,53.925 73.640 C 53.328 73.960,53.178 73.960,53.375 73.640 C 53.527 73.394,53.381 73.200,53.043 73.200 C 52.711 73.200,52.256 73.515,52.032 73.900 M272.933 148.400 C 272.823 148.510,272.523 148.600,272.267 148.600 C 271.405 148.600,271.416 406.862,272.277 407.500 C 273.020 408.050,273.755 408.174,273.462 407.700 C 273.360 407.535,287.164 407.490,304.138 407.600 C 321.112 407.710,335.318 407.657,335.707 407.482 C 336.297 407.217,336.402 406.691,336.347 404.282 C 336.311 402.697,336.194 401.670,336.087 402.000 C 335.980 402.330,335.692 402.860,335.446 403.177 C 335.106 403.617,335.119 403.682,335.500 403.453 C 335.775 403.288,336.000 403.329,336.000 403.545 C 336.000 404.746,274.672 404.730,273.471 403.529 C 272.898 402.955,272.470 243.684,272.798 152.876 C 272.799 152.588,272.980 152.464,273.200 152.600 C 273.420 152.736,273.600 152.612,273.600 152.324 C 273.600 151.796,332.976 151.682,334.357 152.207 C 334.823 152.384,334.827 152.303,334.386 151.709 C 334.095 151.319,334.321 151.467,334.888 152.038 C 335.454 152.609,336.005 153.419,336.112 153.838 C 336.252 154.383,336.320 154.286,336.354 153.500 C 336.380 152.865,336.189 152.397,335.900 152.394 C 335.513 152.389,335.517 152.313,335.917 152.060 C 336.502 151.689,336.452 148.880,335.855 148.510 C 335.647 148.382,335.601 148.477,335.753 148.723 C 336.153 149.371,275.390 149.950,274.745 149.305 C 274.577 149.137,287.751 148.980,304.020 148.954 C 331.161 148.913,335.386 148.852,335.044 148.511 C 334.836 148.303,273.141 148.193,272.933 148.400 M98.729 332.300 C 91.100 332.361,78.500 332.361,70.729 332.300 C 62.958 332.239,69.200 332.189,84.600 332.189 C 100.000 332.189,106.358 332.239,98.729 332.300 M318.700 407.100 C 310.615 407.160,297.385 407.160,289.300 407.100 C 281.215 407.039,287.830 406.990,304.000 406.990 C 320.170 406.990,326.785 407.039,318.700 407.100 " stroke="none" fill="#e4e4e4" fill-rule="evenodd"></path><path id="path2" d="M50.400 74.733 C 50.400 75.210,50.564 75.600,50.765 75.600 C 51.171 75.600,51.111 74.577,50.678 74.145 C 50.525 73.992,50.400 74.257,50.400 74.733 M50.401 202.872 C 50.398 303.394,50.498 328.389,50.899 328.148 C 51.273 327.923,51.268 328.009,50.878 328.491 C 50.362 329.128,51.188 329.345,51.799 328.734 C 51.922 328.612,52.708 328.637,53.546 328.790 C 54.385 328.943,55.460 329.010,55.935 328.937 C 56.411 328.864,56.800 328.984,56.800 329.203 C 56.800 329.462,66.418 329.600,84.504 329.600 L 112.208 329.600 113.305 328.583 L 114.403 327.565 114.399 203.253 L 114.395 78.940 113.369 78.048 L 112.344 77.156 81.374 77.226 L 50.405 77.295 50.401 202.872 M304.400 148.396 C 320.790 148.508,333.750 148.740,333.200 148.912 C 332.650 149.083,319.204 149.173,303.320 149.112 C 287.436 149.050,274.577 149.137,274.745 149.305 C 275.002 149.562,332.027 149.465,334.700 149.204 C 335.236 149.151,335.598 148.849,335.594 148.458 C 335.590 148.003,335.494 147.948,335.283 148.279 C 335.083 148.595,334.778 148.631,334.389 148.385 C 334.036 148.161,321.972 148.048,304.200 148.102 L 274.600 148.192 304.400 148.396 M334.386 151.709 C 334.827 152.303,334.823 152.384,334.357 152.207 C 332.976 151.682,273.600 151.796,273.600 152.324 C 273.600 152.612,273.420 152.736,273.200 152.600 C 272.980 152.464,272.799 152.588,272.798 152.876 C 272.470 243.713,272.898 402.955,273.472 403.529 C 274.444 404.501,335.396 404.570,336.007 403.600 C 336.242 403.226,336.350 355.975,336.292 278.190 L 336.200 153.381 335.029 152.190 C 334.385 151.536,334.095 151.319,334.386 151.709 M50.886 331.538 C 50.210 331.967,50.702 333.203,51.543 333.188 C 52.113 333.177,52.105 333.120,51.478 332.756 C 50.907 332.424,50.855 332.216,51.227 331.768 C 51.756 331.130,51.646 331.056,50.886 331.538 M70.729 332.300 C 78.500 332.361,91.100 332.361,98.729 332.300 C 106.358 332.239,100.000 332.189,84.600 332.189 C 69.200 332.189,62.958 332.239,70.729 332.300 M289.300 407.100 C 297.385 407.160,310.615 407.160,318.700 407.100 C 326.785 407.039,320.170 406.990,304.000 406.990 C 287.830 406.990,281.215 407.039,289.300 407.100 " stroke="none" fill="#dcdcdc" fill-rule="evenodd"></path><path id="path3" d="" stroke="none" fill="#f8100ec" fill-rule="evenodd"></path><path id="path4" d="" stroke="none" fill="#e4dcf0" fill-rule="evenodd"></path></g></svg>